<svg xmlns="http://www.w3.org/2000/svg" width="1272" height="535" viewBox="-760 -495 1272 535">
<rect x="-760.0" y="-495.0" width="1272.0" height="535.0" fill="#ffffff"/>
<line x1="0.0" y1="-350.0" x2="0.0" y2="-390.0" stroke="#2b6cb0" stroke-width="2" stroke-linecap="round"/>
<line x1="0.0" y1="-290.0" x2="0.0" y2="-250.0" stroke="#2b6cb0" stroke-width="2" stroke-linecap="round"/>
<line x1="0.0" y1="-100.0" x2="0.0" y2="-140.0" stroke="#2b6cb0" stroke-width="2" stroke-linecap="round"/>
<line x1="0.0" y1="-40.0" x2="0.0" y2="0.0" stroke="#2b6cb0" stroke-width="2" stroke-linecap="round"/>
<line x1="430.0" y1="-100.0" x2="430.0" y2="-140.0" stroke="#2b6cb0" stroke-width="2" stroke-linecap="round"/>
<line x1="430.0" y1="-40.0" x2="430.0" y2="0.0" stroke="#2b6cb0" stroke-width="2" stroke-linecap="round"/>
<line x1="0.0" y1="-300.0" x2="0.0" y2="-290.0" stroke="#1a202c" stroke-width="2" stroke-linecap="round"/>
<line x1="0.0" y1="-300.0" x2="7.5" y2="-302.5" stroke="#1a202c" stroke-width="2" stroke-linecap="round"/>
<line x1="-7.5" y1="-307.5" x2="7.5" y2="-302.5" stroke="#1a202c" stroke-width="2" stroke-linecap="round"/>
<line x1="-7.5" y1="-307.5" x2="7.5" y2="-312.5" stroke="#1a202c" stroke-width="2" stroke-linecap="round"/>
<line x1="-7.5" y1="-317.5" x2="7.5" y2="-312.5" stroke="#1a202c" stroke-width="2" stroke-linecap="round"/>
<line x1="-7.5" y1="-317.5" x2="7.5" y2="-322.5" stroke="#1a202c" stroke-width="2" stroke-linecap="round"/>
<line x1="-7.5" y1="-327.5" x2="7.5" y2="-322.5" stroke="#1a202c" stroke-width="2" stroke-linecap="round"/>
<line x1="-7.5" y1="-327.5" x2="7.5" y2="-332.5" stroke="#1a202c" stroke-width="2" stroke-linecap="round"/>
<line x1="-7.5" y1="-337.5" x2="7.5" y2="-332.5" stroke="#1a202c" stroke-width="2" stroke-linecap="round"/>
<line x1="-7.5" y1="-337.5" x2="0.0" y2="-340.0" stroke="#1a202c" stroke-width="2" stroke-linecap="round"/>
<line x1="0.0" y1="-350.0" x2="0.0" y2="-340.0" stroke="#1a202c" stroke-width="2" stroke-linecap="round"/>
<text x="-30.0" y="-358.0" text-anchor="end" font-family="Helvetica,Arial,sans-serif" font-size="11" font-weight="bold" fill="#1a202c">Rz</text>
<text x="-30.0" y="-345.0" text-anchor="end" font-family="Helvetica,Arial,sans-serif" font-size="9.5" fill="#4a5568">W=1u L=35u</text>
<circle cx="0.0" cy="-390.0" r="2.6" fill="#c05621"/>
<text x="7.0" y="-385.5" text-anchor="start" font-family="Helvetica,Arial,sans-serif" font-size="11" fill="#7b341e">vctrl</text>
<circle cx="0.0" cy="-250.0" r="2.6" fill="#c05621"/>
<text x="7.0" y="-245.5" text-anchor="start" font-family="Helvetica,Arial,sans-serif" font-size="11" fill="#7b341e">nz</text>
<line x1="-17.5" y1="-75.0" x2="17.5" y2="-75.0" stroke="#1a202c" stroke-width="2" stroke-linecap="round"/>
<line x1="-17.5" y1="-65.0" x2="17.5" y2="-65.0" stroke="#1a202c" stroke-width="2" stroke-linecap="round"/>
<line x1="0.0" y1="-100.0" x2="0.0" y2="-75.0" stroke="#1a202c" stroke-width="2" stroke-linecap="round"/>
<line x1="0.0" y1="-65.0" x2="0.0" y2="-40.0" stroke="#1a202c" stroke-width="2" stroke-linecap="round"/>
<text x="-30.0" y="-108.0" text-anchor="end" font-family="Helvetica,Arial,sans-serif" font-size="11" font-weight="bold" fill="#1a202c">Cz</text>
<text x="-30.0" y="-95.0" text-anchor="end" font-family="Helvetica,Arial,sans-serif" font-size="9.5" fill="#4a5568">W=93u L=93u</text>
<circle cx="0.0" cy="-140.0" r="2.6" fill="#c05621"/>
<text x="7.0" y="-135.5" text-anchor="start" font-family="Helvetica,Arial,sans-serif" font-size="11" fill="#7b341e">nz</text>
<circle cx="0.0" cy="0.0" r="2.6" fill="#c05621"/>
<text x="7.0" y="4.5" text-anchor="start" font-family="Helvetica,Arial,sans-serif" font-size="11" fill="#7b341e">vss</text>
<line x1="412.5" y1="-75.0" x2="447.5" y2="-75.0" stroke="#1a202c" stroke-width="2" stroke-linecap="round"/>
<line x1="412.5" y1="-65.0" x2="447.5" y2="-65.0" stroke="#1a202c" stroke-width="2" stroke-linecap="round"/>
<line x1="430.0" y1="-100.0" x2="430.0" y2="-75.0" stroke="#1a202c" stroke-width="2" stroke-linecap="round"/>
<line x1="430.0" y1="-65.0" x2="430.0" y2="-40.0" stroke="#1a202c" stroke-width="2" stroke-linecap="round"/>
<text x="400.0" y="-108.0" text-anchor="end" font-family="Helvetica,Arial,sans-serif" font-size="11" font-weight="bold" fill="#1a202c">Cp</text>
<text x="400.0" y="-95.0" text-anchor="end" font-family="Helvetica,Arial,sans-serif" font-size="9.5" fill="#4a5568">W=30u L=30u</text>
<circle cx="430.0" cy="-140.0" r="2.6" fill="#c05621"/>
<text x="437.0" y="-135.5" text-anchor="start" font-family="Helvetica,Arial,sans-serif" font-size="11" fill="#7b341e">vctrl</text>
<circle cx="430.0" cy="0.0" r="2.6" fill="#c05621"/>
<text x="437.0" y="4.5" text-anchor="start" font-family="Helvetica,Arial,sans-serif" font-size="11" fill="#7b341e">vss</text>
<circle cx="-720.0" cy="-360.0" r="2.6" fill="#c05621"/>
<text x="-713.0" y="-355.5" text-anchor="start" font-family="Helvetica,Arial,sans-serif" font-size="11" fill="#7b341e">vctrl</text>
<circle cx="-720.0" cy="-300.0" r="2.6" fill="#c05621"/>
<text x="-713.0" y="-295.5" text-anchor="start" font-family="Helvetica,Arial,sans-serif" font-size="11" fill="#7b341e">vss</text>
<text x="-720.0" y="-455.0" font-family="Helvetica,Arial,sans-serif" font-size="17.0" font-weight="bold" fill="#1a202c">loop_filter -- type-II RC loop filter (baseline)</text>
</svg>