<?xml version="1.0" encoding="UTF-8" standalone="no"?>
<!DOCTYPE svg PUBLIC "-//W3C//DTD SVG 1.1//EN"
 "http://www.w3.org/Graphics/SVG/1.1/DTD/svg11.dtd">
<!-- Generated by graphviz version 14.1.2 (20260124.0452)
 -->
<!-- Title: pll_rosc Pages: 1 -->
<svg width="1093pt" height="214pt"
 viewBox="0.00 0.00 1093.00 214.00" xmlns="http://www.w3.org/2000/svg" xmlns:xlink="http://www.w3.org/1999/xlink">
<g id="graph0" class="graph" transform="scale(1 1) rotate(0) translate(4 209.88)">
<title>pll_rosc</title>
<polygon fill="white" stroke="none" points="-4,4 -4,-209.88 1088.78,-209.88 1088.78,4 -4,4"/>
<text xml:space="preserve" text-anchor="start" x="8" y="-192.43" font-family="Helvetica,sans-Serif" font-weight="bold" font-size="11.00">Ring&#45;oscillator PLL — programmable ÷N</text>
<text xml:space="preserve" text-anchor="start" x="8" y="-183.33" font-family="Helvetica,sans-Serif" font-size="9.00" fill="#555555">Type&#45;II charge&#45;pump loop, all&#45;CMOS. Slot budget ~520 × 250 µm; the loop&#45;filter capacitor is the area driver.</text>
<!-- ref -->
<g id="node1" class="node">
<title>ref</title>
<path fill="#eef3ea" stroke="#6b8f5e" stroke-width="1.2" d="M52.29,-58.7C52.29,-58.7 12,-58.7 12,-58.7 6,-58.7 0,-52.7 0,-46.7 0,-46.7 0,-34.7 0,-34.7 0,-28.7 6,-22.7 12,-22.7 12,-22.7 52.29,-22.7 52.29,-22.7 58.29,-22.7 64.29,-28.7 64.29,-34.7 64.29,-34.7 64.29,-46.7 64.29,-46.7 64.29,-52.7 58.29,-58.7 52.29,-58.7"/>
<text xml:space="preserve" text-anchor="start" x="22.02" y="-41.2" font-family="Helvetica,sans-Serif" font-weight="bold" font-size="10.00">f_ref</text>
<text xml:space="preserve" text-anchor="start" x="11.52" y="-33.1" font-family="Helvetica,sans-Serif" font-size="8.00">10–50 MHz</text>
</g>
<!-- pfd -->
<g id="node2" class="node">
<title>pfd</title>
<path fill="#f4f7fb" stroke="#4a6fa5" stroke-width="1.2" d="M203.58,-60.18C203.58,-60.18 122.79,-60.18 122.79,-60.18 116.79,-60.18 110.79,-54.18 110.79,-48.18 110.79,-48.18 110.79,-33.22 110.79,-33.22 110.79,-27.22 116.79,-21.22 122.79,-21.22 122.79,-21.22 203.58,-21.22 203.58,-21.22 209.58,-21.22 215.58,-27.22 215.58,-33.22 215.58,-33.22 215.58,-48.18 215.58,-48.18 215.58,-54.18 209.58,-60.18 203.58,-60.18"/>
<text xml:space="preserve" text-anchor="start" x="155.69" y="-45.2" font-family="Helvetica,sans-Serif" font-weight="bold" font-size="10.00">pfd</text>
<text xml:space="preserve" text-anchor="start" x="122.31" y="-37.1" font-family="Helvetica,sans-Serif" font-size="8.00">tri&#45;state, 2 DFF + reset</text>
<text xml:space="preserve" text-anchor="start" x="142.94" y="-29.1" font-family="Helvetica,sans-Serif" font-size="8.00">POR&#45;gated</text>
</g>
<!-- ref&#45;&gt;pfd -->
<g id="edge1" class="edge">
<title>ref&#45;&gt;pfd</title>
<path fill="none" stroke="#33475b" d="M64.71,-40.7C75.97,-40.7 89.07,-40.7 101.93,-40.7"/>
<polygon fill="#33475b" stroke="#33475b" points="101.82,-43.15 108.82,-40.7 101.82,-38.25 101.82,-43.15"/>
<text xml:space="preserve" text-anchor="middle" x="87.54" y="-41.9" font-family="Helvetica,sans-Serif" font-size="9.00">ref</text>
</g>
<!-- cp -->
<g id="node3" class="node">
<title>cp</title>
<path fill="#f4f7fb" stroke="#4a6fa5" stroke-width="1.2" d="M387.12,-60.18C387.12,-60.18 291.33,-60.18 291.33,-60.18 285.33,-60.18 279.33,-54.18 279.33,-48.18 279.33,-48.18 279.33,-33.22 279.33,-33.22 279.33,-27.22 285.33,-21.22 291.33,-21.22 291.33,-21.22 387.12,-21.22 387.12,-21.22 393.12,-21.22 399.12,-27.22 399.12,-33.22 399.12,-33.22 399.12,-48.18 399.12,-48.18 399.12,-54.18 393.12,-60.18 387.12,-60.18"/>
<text xml:space="preserve" text-anchor="start" x="307.35" y="-45.2" font-family="Helvetica,sans-Serif" font-weight="bold" font-size="10.00">charge_pump</text>
<text xml:space="preserve" text-anchor="start" x="311.1" y="-37.1" font-family="Helvetica,sans-Serif" font-size="8.00">current steering</text>
<text xml:space="preserve" text-anchor="start" x="290.85" y="-29.1" font-family="Helvetica,sans-Serif" font-size="8.00">small Icp from harness bias</text>
</g>
<!-- pfd&#45;&gt;cp -->
<g id="edge2" class="edge">
<title>pfd&#45;&gt;cp</title>
<path fill="none" stroke="#33475b" d="M215.93,-40.7C233.14,-40.7 252.56,-40.7 270.77,-40.7"/>
<polygon fill="#33475b" stroke="#33475b" points="270.53,-43.15 277.53,-40.7 270.53,-38.25 270.53,-43.15"/>
<text xml:space="preserve" text-anchor="middle" x="247.46" y="-41.9" font-family="Helvetica,sans-Serif" font-size="9.00">up / dn</text>
</g>
<!-- lf -->
<g id="node4" class="node">
<title>lf</title>
<path fill="#f4f7fb" stroke="#4a6fa5" stroke-width="1.2" d="M554.91,-60.18C554.91,-60.18 473.37,-60.18 473.37,-60.18 467.37,-60.18 461.37,-54.18 461.37,-48.18 461.37,-48.18 461.37,-33.22 461.37,-33.22 461.37,-27.22 467.37,-21.22 473.37,-21.22 473.37,-21.22 554.91,-21.22 554.91,-21.22 560.91,-21.22 566.91,-27.22 566.91,-33.22 566.91,-33.22 566.91,-48.18 566.91,-48.18 566.91,-54.18 560.91,-60.18 554.91,-60.18"/>
<text xml:space="preserve" text-anchor="start" x="490.51" y="-45.2" font-family="Helvetica,sans-Serif" font-weight="bold" font-size="10.00">loop_filter</text>
<text xml:space="preserve" text-anchor="start" x="477.01" y="-37.1" font-family="Helvetica,sans-Serif" font-size="8.00">type&#45;II RC (baseline)</text>
<text xml:space="preserve" text-anchor="start" x="472.89" y="-29.1" font-family="Helvetica,sans-Serif" font-size="8.00">Cz 20 pF = 93 × 93 µm</text>
</g>
<!-- cp&#45;&gt;lf -->
<g id="edge3" class="edge">
<title>cp&#45;&gt;lf</title>
<path fill="none" stroke="#33475b" d="M399.25,-40.7C416.48,-40.7 435.34,-40.7 452.67,-40.7"/>
<polygon fill="#33475b" stroke="#33475b" points="452.52,-43.15 459.52,-40.7 452.52,-38.25 452.52,-43.15"/>
<text xml:space="preserve" text-anchor="middle" x="425.37" y="-41.9" font-family="Helvetica,sans-Serif" font-size="9.00">vctrl</text>
</g>
<!-- vco -->
<g id="node6" class="node">
<title>vco</title>
<path fill="#f4f7fb" stroke="#4a6fa5" stroke-width="1.2" d="M766.2,-60.18C766.2,-60.18 654.66,-60.18 654.66,-60.18 648.66,-60.18 642.66,-54.18 642.66,-48.18 642.66,-48.18 642.66,-33.22 642.66,-33.22 642.66,-27.22 648.66,-21.22 654.66,-21.22 654.66,-21.22 766.2,-21.22 766.2,-21.22 772.2,-21.22 778.2,-27.22 778.2,-33.22 778.2,-33.22 778.2,-48.18 778.2,-48.18 778.2,-54.18 772.2,-60.18 766.2,-60.18"/>
<text xml:space="preserve" text-anchor="start" x="689.43" y="-45.2" font-family="Helvetica,sans-Serif" font-weight="bold" font-size="10.00">rosc_vco</text>
<text xml:space="preserve" text-anchor="start" x="660.56" y="-37.1" font-family="Helvetica,sans-Serif" font-size="8.00">7&#45;stage current&#45;starved ring</text>
<text xml:space="preserve" text-anchor="start" x="654.18" y="-29.1" font-family="Helvetica,sans-Serif" font-size="8.00">matched dummy load per stage</text>
</g>
<!-- lf&#45;&gt;vco -->
<g id="edge4" class="edge">
<title>lf&#45;&gt;vco</title>
<path fill="none" stroke="#33475b" d="M567.46,-40.7C587.89,-40.7 611.71,-40.7 633.94,-40.7"/>
<polygon fill="#33475b" stroke="#33475b" points="633.85,-43.15 640.85,-40.7 633.85,-38.25 633.85,-43.15"/>
<text xml:space="preserve" text-anchor="middle" x="609.66" y="-41.9" font-family="Helvetica,sans-Serif" font-size="9.00">vctrl</text>
</g>
<!-- lf2 -->
<g id="node5" class="node">
<title>lf2</title>
<path fill="#fdf6ec" stroke="#c08a3e" stroke-width="1.2" stroke-dasharray="5,2" d="M564.66,-142.18C564.66,-142.18 463.62,-142.18 463.62,-142.18 457.62,-142.18 451.62,-136.18 451.62,-130.18 451.62,-130.18 451.62,-107.22 451.62,-107.22 451.62,-101.22 457.62,-95.22 463.62,-95.22 463.62,-95.22 564.66,-95.22 564.66,-95.22 570.66,-95.22 576.66,-101.22 576.66,-107.22 576.66,-107.22 576.66,-130.18 576.66,-130.18 576.66,-136.18 570.66,-142.18 564.66,-142.18"/>
<text xml:space="preserve" text-anchor="start" x="466.89" y="-127.2" font-family="Helvetica,sans-Serif" font-weight="bold" font-size="10.00">loop_filter_lownoise</text>
<text xml:space="preserve" text-anchor="start" x="477.76" y="-119.1" font-family="Helvetica,sans-Serif" font-size="8.00">dual&#45;path alternative</text>
<text xml:space="preserve" text-anchor="start" x="463.14" y="-111.1" font-family="Helvetica,sans-Serif" font-size="8.00">MOS cap + capacitive divider</text>
<text xml:space="preserve" text-anchor="start" x="478.89" y="-103.1" font-family="Helvetica,sans-Serif" font-size="8.00">needs vctrl &gt; ~0.7 V</text>
</g>
<!-- lf2&#45;&gt;lf -->
<g id="edge8" class="edge">
<title>lf2&#45;&gt;lf</title>
<path fill="none" stroke="#c08a3e" stroke-dasharray="5,2" d="M514.14,-94.85C514.14,-83.81 514.14,-70.86 514.14,-60.39"/>
<text xml:space="preserve" text-anchor="middle" x="506.26" y="-74.03" font-family="Helvetica,sans-Serif" font-size="9.00" fill="#c08a3e">swap&#45;in candidate</text>
</g>
<!-- out -->
<g id="node7" class="node">
<title>out</title>
<polygon fill="#eaf1fa" stroke="#2f5c9e" stroke-width="1.2" points="925.24,-58.7 815.2,-58.7 815.2,-22.7 925.24,-22.7 925.24,-58.7"/>
<text xml:space="preserve" text-anchor="start" x="851.85" y="-41.2" font-family="Helvetica,sans-Serif" font-weight="bold" font-size="10.00">vco_out</text>
<text xml:space="preserve" text-anchor="start" x="826.72" y="-33.1" font-family="Helvetica,sans-Serif" font-size="8.00">100 MHz – 1 GHz target</text>
</g>
<!-- vco&#45;&gt;out -->
<g id="edge5" class="edge">
<title>vco&#45;&gt;out</title>
<path fill="none" stroke="#33475b" stroke-width="2" d="M778.35,-40.7C787.61,-40.7 797.09,-40.7 806.28,-40.7"/>
<polygon fill="#33475b" stroke="#33475b" stroke-width="2" points="804.59,-43.15 811.59,-40.7 804.59,-38.25 804.59,-43.15"/>
</g>
<!-- div -->
<g id="node8" class="node">
<title>div</title>
<path fill="#f4f7fb" stroke="#4a6fa5" stroke-width="1.2" d="M1072.78,-60.18C1072.78,-60.18 984.49,-60.18 984.49,-60.18 978.49,-60.18 972.49,-54.18 972.49,-48.18 972.49,-48.18 972.49,-33.22 972.49,-33.22 972.49,-27.22 978.49,-21.22 984.49,-21.22 984.49,-21.22 1072.78,-21.22 1072.78,-21.22 1078.78,-21.22 1084.78,-27.22 1084.78,-33.22 1084.78,-33.22 1084.78,-48.18 1084.78,-48.18 1084.78,-54.18 1078.78,-60.18 1072.78,-60.18"/>
<text xml:space="preserve" text-anchor="start" x="1018.51" y="-45.2" font-family="Helvetica,sans-Serif" font-weight="bold" font-size="10.00">divn</text>
<text xml:space="preserve" text-anchor="start" x="1005.01" y="-37.1" font-family="Helvetica,sans-Serif" font-size="8.00">÷2 ÷4 ÷8 ÷16</text>
<text xml:space="preserve" text-anchor="start" x="984.01" y="-29.1" font-family="Helvetica,sans-Serif" font-size="8.00">nsel[1:0] over control bus</text>
</g>
<!-- out&#45;&gt;div -->
<g id="edge6" class="edge">
<title>out&#45;&gt;div</title>
<path fill="none" stroke="#33475b" d="M925.49,-40.7C937.86,-40.7 951.13,-40.7 963.86,-40.7"/>
<polygon fill="#33475b" stroke="#33475b" points="963.62,-43.15 970.62,-40.7 963.62,-38.25 963.62,-43.15"/>
<text xml:space="preserve" text-anchor="middle" x="948.87" y="-41.9" font-family="Helvetica,sans-Serif" font-size="9.00">clk</text>
</g>
<!-- div&#45;&gt;pfd -->
<g id="edge7" class="edge">
<title>div&#45;&gt;pfd</title>
<path fill="none" stroke="#b4472e" d="M972.08,-23.35C957.03,-19.39 940.64,-15.75 925.24,-13.7 800.75,2.86 766.95,5.36 642.66,-12.7 620.64,-15.9 609.22,-10.13 594.66,-26.95 558.29,-68.98 618.69,-114.34 576.66,-150.7 534.63,-187.06 493.87,-186.81 451.62,-150.7 412.62,-117.38 460.86,-80.17 433.62,-36.7 423.7,-20.88 416.94,-18.29 399.12,-12.7 341.32,5.42 272.15,-6.63 223.89,-20.1"/>
<polygon fill="#b4472e" stroke="#b4472e" points="223.24,-17.74 217.19,-22.03 224.59,-22.45 223.24,-17.74"/>
<text xml:space="preserve" text-anchor="middle" x="609.66" y="-28.15" font-family="Helvetica,sans-Serif" font-size="9.00" fill="#b4472e">div_out</text>
</g>
</g>
</svg>
