<?xml version="1.0" encoding="UTF-8" standalone="no"?>
<!DOCTYPE svg PUBLIC "-//W3C//DTD SVG 1.1//EN"
 "http://www.w3.org/Graphics/SVG/1.1/DTD/svg11.dtd">
<!-- Generated by graphviz version 14.1.2 (20260124.0452)
 -->
<!-- Title: pll_rosc Pages: 1 -->
<svg width="1147pt" height="220pt"
 viewBox="0.00 0.00 1147.00 220.00" xmlns="http://www.w3.org/2000/svg" xmlns:xlink="http://www.w3.org/1999/xlink">
<g id="graph0" class="graph" transform="scale(1 1) rotate(0) translate(4 215.6)">
<title>pll_rosc</title>
<polygon fill="white" stroke="none" points="-4,4 -4,-215.6 1142.78,-215.6 1142.78,4 -4,4"/>
<text xml:space="preserve" text-anchor="start" x="8" y="-198.15" font-family="Helvetica,sans-Serif" font-weight="bold" font-size="11.00">Ring&#45;oscillator PLL — programmable ÷N</text>
<text xml:space="preserve" text-anchor="start" x="8" y="-189.05" font-family="Helvetica,sans-Serif" font-size="9.00" fill="#555555">Type&#45;II charge&#45;pump loop, all&#45;CMOS. Icp 1 µA. Locks in ~5 µs; worst&#45;case phase margin 45.6° over PVT.</text>
<!-- ref -->
<g id="node1" class="node">
<title>ref</title>
<path fill="#eef3ea" stroke="#6b8f5e" stroke-width="1.2" d="M77.79,-59.37C77.79,-59.37 12,-59.37 12,-59.37 6,-59.37 0,-53.37 0,-47.37 0,-47.37 0,-35.37 0,-35.37 0,-29.37 6,-23.37 12,-23.37 12,-23.37 77.79,-23.37 77.79,-23.37 83.79,-23.37 89.79,-29.37 89.79,-35.37 89.79,-35.37 89.79,-47.37 89.79,-47.37 89.79,-53.37 83.79,-59.37 77.79,-59.37"/>
<text xml:space="preserve" text-anchor="start" x="34.77" y="-41.87" font-family="Helvetica,sans-Serif" font-weight="bold" font-size="10.00">f_ref</text>
<text xml:space="preserve" text-anchor="start" x="11.52" y="-33.77" font-family="Helvetica,sans-Serif" font-size="8.00">16–50 MHz usable</text>
</g>
<!-- pfd -->
<g id="node2" class="node">
<title>pfd</title>
<path fill="#f4f7fb" stroke="#4a6fa5" stroke-width="1.2" d="M229.08,-60.85C229.08,-60.85 148.29,-60.85 148.29,-60.85 142.29,-60.85 136.29,-54.85 136.29,-48.85 136.29,-48.85 136.29,-33.89 136.29,-33.89 136.29,-27.89 142.29,-21.89 148.29,-21.89 148.29,-21.89 229.08,-21.89 229.08,-21.89 235.08,-21.89 241.08,-27.89 241.08,-33.89 241.08,-33.89 241.08,-48.85 241.08,-48.85 241.08,-54.85 235.08,-60.85 229.08,-60.85"/>
<text xml:space="preserve" text-anchor="start" x="181.19" y="-45.87" font-family="Helvetica,sans-Serif" font-weight="bold" font-size="10.00">pfd</text>
<text xml:space="preserve" text-anchor="start" x="147.81" y="-37.77" font-family="Helvetica,sans-Serif" font-size="8.00">tri&#45;state, 2 DFF + reset</text>
<text xml:space="preserve" text-anchor="start" x="168.44" y="-29.77" font-family="Helvetica,sans-Serif" font-size="8.00">POR&#45;gated</text>
</g>
<!-- ref&#45;&gt;pfd -->
<g id="edge1" class="edge">
<title>ref&#45;&gt;pfd</title>
<path fill="none" stroke="#33475b" d="M90.37,-41.37C102.23,-41.37 115.24,-41.37 127.78,-41.37"/>
<polygon fill="#33475b" stroke="#33475b" points="127.42,-43.82 134.42,-41.37 127.42,-38.92 127.42,-43.82"/>
<text xml:space="preserve" text-anchor="middle" x="113.04" y="-42.57" font-family="Helvetica,sans-Serif" font-size="9.00">ref</text>
</g>
<!-- cp -->
<g id="node3" class="node">
<title>cp</title>
<path fill="#f4f7fb" stroke="#4a6fa5" stroke-width="1.2" d="M412.62,-60.85C412.62,-60.85 316.83,-60.85 316.83,-60.85 310.83,-60.85 304.83,-54.85 304.83,-48.85 304.83,-48.85 304.83,-33.89 304.83,-33.89 304.83,-27.89 310.83,-21.89 316.83,-21.89 316.83,-21.89 412.62,-21.89 412.62,-21.89 418.62,-21.89 424.62,-27.89 424.62,-33.89 424.62,-33.89 424.62,-48.85 424.62,-48.85 424.62,-54.85 418.62,-60.85 412.62,-60.85"/>
<text xml:space="preserve" text-anchor="start" x="332.85" y="-45.87" font-family="Helvetica,sans-Serif" font-weight="bold" font-size="10.00">charge_pump</text>
<text xml:space="preserve" text-anchor="start" x="336.6" y="-37.77" font-family="Helvetica,sans-Serif" font-size="8.00">current steering</text>
<text xml:space="preserve" text-anchor="start" x="316.35" y="-29.77" font-family="Helvetica,sans-Serif" font-size="8.00">small Icp from harness bias</text>
</g>
<!-- pfd&#45;&gt;cp -->
<g id="edge2" class="edge">
<title>pfd&#45;&gt;cp</title>
<path fill="none" stroke="#33475b" d="M241.43,-41.37C258.64,-41.37 278.06,-41.37 296.27,-41.37"/>
<polygon fill="#33475b" stroke="#33475b" points="296.03,-43.82 303.03,-41.37 296.03,-38.92 296.03,-43.82"/>
<text xml:space="preserve" text-anchor="middle" x="272.96" y="-42.57" font-family="Helvetica,sans-Serif" font-size="9.00">up / dn</text>
</g>
<!-- lf -->
<g id="node4" class="node">
<title>lf</title>
<path fill="#f4f7fb" stroke="#4a6fa5" stroke-width="1.2" d="M613.41,-60.85C613.41,-60.85 489.12,-60.85 489.12,-60.85 483.12,-60.85 477.12,-54.85 477.12,-48.85 477.12,-48.85 477.12,-33.89 477.12,-33.89 477.12,-27.89 483.12,-21.89 489.12,-21.89 489.12,-21.89 613.41,-21.89 613.41,-21.89 619.41,-21.89 625.41,-27.89 625.41,-33.89 625.41,-33.89 625.41,-48.85 625.41,-48.85 625.41,-54.85 619.41,-60.85 613.41,-60.85"/>
<text xml:space="preserve" text-anchor="start" x="527.64" y="-45.87" font-family="Helvetica,sans-Serif" font-weight="bold" font-size="10.00">loop_filter</text>
<text xml:space="preserve" text-anchor="start" x="495.39" y="-37.77" font-family="Helvetica,sans-Serif" font-size="8.00">type&#45;II RC, designed from Kvco</text>
<text xml:space="preserve" text-anchor="start" x="488.64" y="-29.77" font-family="Helvetica,sans-Serif" font-size="8.00">Rz 80.8k, Cz 9.21 pF = 63 × 63 µm</text>
</g>
<!-- cp&#45;&gt;lf -->
<g id="edge3" class="edge">
<title>cp&#45;&gt;lf</title>
<path fill="none" stroke="#33475b" d="M425.13,-41.37C438.87,-41.37 453.73,-41.37 468.25,-41.37"/>
<polygon fill="#33475b" stroke="#33475b" points="468.23,-43.82 475.23,-41.37 468.23,-38.92 468.23,-43.82"/>
<text xml:space="preserve" text-anchor="middle" x="450.87" y="-42.57" font-family="Helvetica,sans-Serif" font-size="9.00">vctrl</text>
</g>
<!-- vco -->
<g id="node6" class="node">
<title>vco</title>
<path fill="#f4f7fb" stroke="#4a6fa5" stroke-width="1.2" d="M814.95,-60.85C814.95,-60.85 703.41,-60.85 703.41,-60.85 697.41,-60.85 691.41,-54.85 691.41,-48.85 691.41,-48.85 691.41,-33.89 691.41,-33.89 691.41,-27.89 697.41,-21.89 703.41,-21.89 703.41,-21.89 814.95,-21.89 814.95,-21.89 820.95,-21.89 826.95,-27.89 826.95,-33.89 826.95,-33.89 826.95,-48.85 826.95,-48.85 826.95,-54.85 820.95,-60.85 814.95,-60.85"/>
<text xml:space="preserve" text-anchor="start" x="738.18" y="-45.87" font-family="Helvetica,sans-Serif" font-weight="bold" font-size="10.00">rosc_vco</text>
<text xml:space="preserve" text-anchor="start" x="709.31" y="-37.77" font-family="Helvetica,sans-Serif" font-size="8.00">7&#45;stage current&#45;starved ring</text>
<text xml:space="preserve" text-anchor="start" x="702.93" y="-29.77" font-family="Helvetica,sans-Serif" font-size="8.00">matched dummy load per stage</text>
</g>
<!-- lf&#45;&gt;vco -->
<g id="edge4" class="edge">
<title>lf&#45;&gt;vco</title>
<path fill="none" stroke="#33475b" d="M625.73,-41.37C644.16,-41.37 663.97,-41.37 682.5,-41.37"/>
<polygon fill="#33475b" stroke="#33475b" points="682.41,-43.82 689.41,-41.37 682.41,-38.92 682.41,-43.82"/>
<text xml:space="preserve" text-anchor="middle" x="658.41" y="-42.57" font-family="Helvetica,sans-Serif" font-size="9.00">vctrl</text>
</g>
<!-- lf2 -->
<g id="node5" class="node">
<title>lf2</title>
<path fill="#fdf6ec" stroke="#c08a3e" stroke-width="1.2" stroke-dasharray="5,2" d="M601.78,-142.85C601.78,-142.85 500.75,-142.85 500.75,-142.85 494.75,-142.85 488.75,-136.85 488.75,-130.85 488.75,-130.85 488.75,-107.89 488.75,-107.89 488.75,-101.89 494.75,-95.89 500.75,-95.89 500.75,-95.89 601.78,-95.89 601.78,-95.89 607.78,-95.89 613.78,-101.89 613.78,-107.89 613.78,-107.89 613.78,-130.85 613.78,-130.85 613.78,-136.85 607.78,-142.85 601.78,-142.85"/>
<text xml:space="preserve" text-anchor="start" x="504.01" y="-127.87" font-family="Helvetica,sans-Serif" font-weight="bold" font-size="10.00">loop_filter_lownoise</text>
<text xml:space="preserve" text-anchor="start" x="514.89" y="-119.77" font-family="Helvetica,sans-Serif" font-size="8.00">dual&#45;path alternative</text>
<text xml:space="preserve" text-anchor="start" x="500.26" y="-111.77" font-family="Helvetica,sans-Serif" font-size="8.00">MOS cap + capacitive divider</text>
<text xml:space="preserve" text-anchor="start" x="516.01" y="-103.77" font-family="Helvetica,sans-Serif" font-size="8.00">needs vctrl &gt; ~0.7 V</text>
</g>
<!-- lf2&#45;&gt;lf -->
<g id="edge8" class="edge">
<title>lf2&#45;&gt;lf</title>
<path fill="none" stroke="#c08a3e" stroke-dasharray="5,2" d="M551.26,-95.51C551.26,-84.48 551.26,-71.52 551.26,-61.05"/>
<text xml:space="preserve" text-anchor="middle" x="543.39" y="-74.69" font-family="Helvetica,sans-Serif" font-size="9.00" fill="#c08a3e">swap&#45;in candidate</text>
</g>
<!-- out -->
<g id="node7" class="node">
<title>out</title>
<polygon fill="#eaf1fa" stroke="#2f5c9e" stroke-width="1.2" points="979.24,-60.85 863.95,-60.85 863.95,-21.89 979.24,-21.89 979.24,-60.85"/>
<text xml:space="preserve" text-anchor="start" x="903.22" y="-45.87" font-family="Helvetica,sans-Serif" font-weight="bold" font-size="10.00">vco_out</text>
<text xml:space="preserve" text-anchor="start" x="884.47" y="-37.77" font-family="Helvetica,sans-Serif" font-size="8.00">115–737 MHz typical</text>
<text xml:space="preserve" text-anchor="start" x="875.47" y="-29.77" font-family="Helvetica,sans-Serif" font-size="8.00">600 MHz ceiling over PVT</text>
</g>
<!-- vco&#45;&gt;out -->
<g id="edge5" class="edge">
<title>vco&#45;&gt;out</title>
<path fill="none" stroke="#33475b" stroke-width="2" d="M827.28,-41.37C836.48,-41.37 845.92,-41.37 855.1,-41.37"/>
<polygon fill="#33475b" stroke="#33475b" stroke-width="2" points="853.4,-43.82 860.4,-41.37 853.4,-38.92 853.4,-43.82"/>
</g>
<!-- div -->
<g id="node8" class="node">
<title>div</title>
<path fill="#f4f7fb" stroke="#4a6fa5" stroke-width="1.2" d="M1126.78,-60.85C1126.78,-60.85 1038.49,-60.85 1038.49,-60.85 1032.49,-60.85 1026.49,-54.85 1026.49,-48.85 1026.49,-48.85 1026.49,-33.89 1026.49,-33.89 1026.49,-27.89 1032.49,-21.89 1038.49,-21.89 1038.49,-21.89 1126.78,-21.89 1126.78,-21.89 1132.78,-21.89 1138.78,-27.89 1138.78,-33.89 1138.78,-33.89 1138.78,-48.85 1138.78,-48.85 1138.78,-54.85 1132.78,-60.85 1126.78,-60.85"/>
<text xml:space="preserve" text-anchor="start" x="1072.51" y="-45.87" font-family="Helvetica,sans-Serif" font-weight="bold" font-size="10.00">divn</text>
<text xml:space="preserve" text-anchor="start" x="1049.63" y="-37.77" font-family="Helvetica,sans-Serif" font-size="8.00">÷8 and ÷16 usable</text>
<text xml:space="preserve" text-anchor="start" x="1038.01" y="-29.77" font-family="Helvetica,sans-Serif" font-size="8.00">nsel[1:0] over control bus</text>
</g>
<!-- out&#45;&gt;div -->
<g id="edge6" class="edge">
<title>out&#45;&gt;div</title>
<path fill="none" stroke="#33475b" d="M979.56,-41.37C991.99,-41.37 1005.22,-41.37 1017.9,-41.37"/>
<polygon fill="#33475b" stroke="#33475b" points="1017.62,-43.82 1024.62,-41.37 1017.62,-38.92 1017.62,-43.82"/>
<text xml:space="preserve" text-anchor="middle" x="1002.87" y="-42.57" font-family="Helvetica,sans-Serif" font-size="9.00">clk</text>
</g>
<!-- div&#45;&gt;pfd -->
<g id="edge7" class="edge">
<title>div&#45;&gt;pfd</title>
<path fill="none" stroke="#b4472e" d="M1026.12,-23.3C1011.08,-19.19 994.67,-15.44 979.24,-13.37 852.45,3.66 818.01,5.03 691.41,-13.37 669.39,-16.57 657.97,-10.79 643.41,-27.62 607.04,-69.65 667.44,-115.01 625.41,-151.37 575.57,-194.49 527.23,-194.18 477.12,-151.37 438.12,-118.04 486.36,-80.83 459.12,-37.37 449.2,-21.54 442.44,-18.96 424.62,-13.37 366.82,4.76 297.65,-7.29 249.39,-20.76"/>
<polygon fill="#b4472e" stroke="#b4472e" points="248.74,-18.4 242.69,-22.69 250.09,-23.11 248.74,-18.4"/>
<text xml:space="preserve" text-anchor="middle" x="658.41" y="-28.82" font-family="Helvetica,sans-Serif" font-size="9.00" fill="#b4472e">div_out</text>
</g>
</g>
</svg>
